<svg width="69" height="69" viewBox="0 0 69 69" fill="none" xmlns="http://www.w3.org/2000/svg">
<path d="M28.4707 68.4736C25.6724 67.9804 22.9909 67.1497 20.4688 66.0254L23.7627 60.3193L28.4707 68.4736ZM49.1914 65.7207C46.7587 66.8675 44.1715 67.7404 41.4678 68.2949L46.0723 60.3193L49.1914 65.7207ZM42.6084 54.3203L34.918 67.6406L27.2266 54.3193L34.918 41L42.6084 54.3203ZM20.2988 54.3203L15.2217 63.1152C12.574 61.328 10.1893 59.1816 8.13379 56.748L14.918 45L20.2988 54.3203ZM61.3564 56.1523C59.3453 58.6438 56.996 60.8502 54.376 62.7002L49.5371 54.3193L54.918 45L61.3564 56.1523ZM34.5 0C53.5538 0 69 15.4462 69 34.5C69 40.2925 67.5693 45.7499 65.0469 50.543L57.5166 37.5L54.9189 33L52.3203 37.5L46.0732 48.3193L37.5166 33.5L34.9189 29L32.3203 33.5L23.7637 48.3193L17.5166 37.5L14.9189 33L12.3203 37.5L4.35742 51.291C1.58311 46.3213 0 40.5959 0 34.5C0 15.4462 15.4462 0 34.5 0Z" fill="#008235"/>
</svg>
